<svg width="24" height="24" viewBox="0 0 24 24" fill="none" xmlns="http://www.w3.org/2000/svg">
<g id="instagram 1">
<g id="Group">
<g id="Group_2">
<path id="Vector" d="M15.3004 5.40002H8.70039C6.88555 5.40002 5.40039 6.88454 5.40039 8.70002V15.3C5.40039 17.1149 6.88555 18.6 8.70039 18.6H15.3004C17.1152 18.6 18.6004 17.1149 18.6004 15.3V8.70002C18.6004 6.88454 17.1152 5.40002 15.3004 5.40002ZM12.0004 14.7499C10.4814 14.7499 9.25034 13.5183 9.25034 12C9.25034 10.481 10.4814 9.24997 12.0004 9.24997C13.5187 9.24997 14.7504 10.481 14.7504 12C14.7504 13.5183 13.5187 14.7499 12.0004 14.7499ZM15.5754 9.24997C15.1194 9.24997 14.7504 8.88053 14.7504 8.42497C14.7504 7.96942 15.1194 7.59997 15.5754 7.59997C16.0315 7.59997 16.4004 7.96942 16.4004 8.42497C16.4004 8.88053 16.0315 9.24997 15.5754 9.24997Z" fill="#697583"/>
</g>
</g>
</g>
</svg>
