<svg width="24" height="24" viewBox="0 0 24 24" fill="none" xmlns="http://www.w3.org/2000/svg">
<g id="telegram">
<path id="telegram_2" d="M4.61016 11.7221C8.55615 10.0922 11.1874 9.0176 12.504 8.49842C16.2631 7.01606 17.0442 6.75855 17.5533 6.74996C17.6652 6.74818 17.9156 6.77449 18.0778 6.89925C18.2147 7.0046 18.2524 7.14691 18.2704 7.24679C18.2885 7.34668 18.3109 7.57421 18.2931 7.752C18.0894 9.78124 17.2079 14.7057 16.7595 16.9784C16.5698 17.9401 16.1962 18.2626 15.8345 18.2942C15.0484 18.3627 14.4515 17.8016 13.6902 17.3285C12.4988 16.5881 11.8258 16.1272 10.6694 15.4047C9.333 14.5697 10.1993 14.1108 10.961 13.3608C11.1603 13.1646 14.6237 10.1779 14.6907 9.90695C14.6991 9.87306 14.7069 9.74675 14.6277 9.68006C14.5486 9.61336 14.4318 9.63617 14.3475 9.65431C14.228 9.68002 12.3248 10.8726 8.63793 13.2322C8.09772 13.5839 7.60842 13.7552 7.17002 13.7463C6.68672 13.7364 5.75704 13.4872 5.06592 13.2742C4.21823 13.0129 3.5445 12.8748 3.60317 12.4311C3.63373 12.2 3.96939 11.9637 4.61016 11.7221Z" fill="#697583"/>
</g>
</svg>
