<svg width="24" height="24" viewBox="0 0 24 24" fill="none" xmlns="http://www.w3.org/2000/svg">
<g id="youtube">
<path id="Vector" d="M12 4C7.58882 4 4 7.58882 4 12C4 16.4109 7.58882 20 12 20C16.4109 20 20 16.4109 20 12C20 7.58882 16.4115 4 12 4ZM13.9895 12.2816H12.688V16.9206H10.7594C10.7594 16.9206 10.7594 14.3859 10.7594 12.2816H9.84258V10.6421H10.7594V9.58157C10.7594 8.82204 11.1203 7.63522 12.7057 7.63522L14.1349 7.6407V9.23226C14.1349 9.23226 13.2664 9.23226 13.0976 9.23226C12.9287 9.23226 12.6886 9.31668 12.6886 9.67888V10.6424H14.1581L13.9895 12.2816Z" fill="#697583"/>
</g>
</svg>
